<svg enable-background="new 0 0 24 24" height="512" viewBox="0 0 24 24" width="512" xmlns="http://www.w3.org/2000/svg"><path d="m21.25 0h-18.5c-1.517 0-2.75 1.233-2.75 2.75v13.5c0 1.517 1.233 2.75 2.75 2.75h1.25v4.25c0 .304.183.577.463.693.093.038.19.057.287.057.195 0 .387-.076.53-.22l4.78-4.78h11.19c1.517 0 2.75-1.233 2.75-2.75v-13.5c0-1.517-1.233-2.75-2.75-2.75z" fill="#2196f3"/><path d="m12 16c-3.584 0-6.5-2.916-6.5-6.5s2.916-6.5 6.5-6.5 6.5 2.916 6.5 6.5-2.916 6.5-6.5 6.5z" fill="#fff"/><path d="m13.5 12c-.256 0-.512-.098-.707-.293l-1.5-1.5c-.188-.187-.293-.441-.293-.707v-2.5c0-.553.448-1 1-1s1 .447 1 1v2.086l1.207 1.207c.391.391.391 1.023 0 1.414-.195.195-.451.293-.707.293z" fill="#607d8b"/><path d="m12 0h-9.25c-1.517 0-2.75 1.233-2.75 2.75v13.5c0 1.517 1.233 2.75 2.75 2.75h1.25v4.25c0 .304.183.577.463.693.093.038.19.057.287.057.195 0 .387-.076.53-.22l4.78-4.78h1.94v-3c-3.584 0-6.5-2.916-6.5-6.5s2.916-6.5 6.5-6.5z" fill="#1d83d4"/><path d="m12 3c-3.584 0-6.5 2.916-6.5 6.5s2.916 6.5 6.5 6.5v-5.086l-.707-.707c-.188-.187-.293-.441-.293-.707v-2.5c0-.553.448-1 1-1z" fill="#dedede"/><path d="m12 6c-.552 0-1 .447-1 1v2.5c0 .266.105.52.293.707l.707.707z" fill="#546d79"/></svg>